<?xml version="1.0" standalone="no"?>
<!DOCTYPE svg PUBLIC "-//W3C//DTD SVG 20010904//EN"
 "http://www.w3.org/TR/2001/REC-SVG-20010904/DTD/svg10.dtd">
<svg version="1.0" xmlns="http://www.w3.org/2000/svg"
 width="284.000000pt" height="240.000000pt" viewBox="0 0 284.000000 240.000000"
 preserveAspectRatio="xMidYMid meet">
<metadata>
Created by potrace 1.10, written by Peter Selinger 2001-2011
</metadata>
<g transform="translate(0.000000,240.000000) scale(0.100000,-0.100000)"
fill="#000000" stroke="none">
<path d="M1315 2010 c-10 -11 -23 -20 -29 -20 -6 0 -45 -13 -86 -29 -56 -22
-77 -35 -83 -53 -4 -12 -23 -72 -43 -133 -25 -77 -38 -136 -41 -195 -3 -47
-10 -90 -15 -97 -6 -8 -5 -46 3 -105 7 -51 13 -106 14 -123 2 -58 41 -198 61
-224 2 -2 13 7 24 20 l20 24 -9 -25 c-4 -14 -11 -43 -15 -64 l-7 -39 66 69
c75 78 148 212 166 304 10 58 14 406 4 500 -3 30 -8 78 -10 106 -3 28 -1 63 4
78 12 31 1 34 -24 6z m2 -217 c9 -163 10 -391 0 -450 -13 -79 -78 -218 -128
-275 l-23 -26 -11 22 c-6 11 -19 21 -29 21 -9 0 -22 9 -28 20 -13 23 -29 95
-33 145 -1 19 -8 77 -14 129 -9 67 -10 96 -2 104 6 6 11 43 11 81 0 56 9 100
42 208 l43 137 75 29 c92 36 86 44 97 -145z"/>
<path d="M1162 1548 c-7 -7 -12 -29 -12 -50 0 -21 -6 -54 -14 -72 -9 -23 -11
-38 -4 -51 6 -9 8 -37 5 -61 -3 -33 0 -47 13 -59 15 -14 18 -13 35 5 15 16 19
43 23 145 3 91 1 129 -8 140 -15 18 -22 19 -38 3z m24 -120 c-3 -62 -11 -126
-16 -143 -8 -25 -9 -21 -4 23 3 35 1 59 -7 68 -9 11 -9 18 -1 26 7 7 12 40 12
75 0 41 4 63 12 63 8 0 9 -30 4 -112z"/>
<path d="M1558 1994 c2 -22 -10 -106 -27 -188 -42 -201 -62 -350 -56 -411 3
-27 15 -83 26 -123 35 -132 70 -182 174 -252 41 -28 78 -50 83 -50 4 0 13 26
19 58 6 31 20 84 31 117 23 69 56 241 48 254 -3 4 -8 37 -11 72 -4 35 -8 74
-10 86 -2 12 -6 57 -10 100 -10 128 -14 145 -42 206 -25 51 -33 59 -68 68 -57
16 -117 48 -140 77 l-21 24 4 -38z m76 -63 c17 -10 47 -21 67 -25 52 -9 78
-69 91 -206 5 -58 15 -154 23 -214 16 -131 3 -236 -47 -383 l-31 -92 -61 42
c-92 64 -153 170 -159 276 -1 21 -5 37 -9 34 -22 -13 0 184 47 428 25 128 33
159 42 159 3 0 20 -8 37 -19z"/>
<path d="M1673 1548 c-14 -17 -27 -102 -26 -163 1 -50 31 -132 57 -154 10 -9
16 -8 26 4 16 20 7 290 -11 311 -14 17 -34 18 -46 2z m33 -65 c10 -225 10
-246 1 -223 -5 14 -15 41 -23 60 -17 45 -19 75 -9 125 10 46 11 53 13 79 3 36
15 6 18 -41z"/>
<path d="M1400 1955 c-7 -9 -9 -23 -4 -37 4 -13 7 -27 5 -33 -10 -36 -20 -271
-22 -492 -1 -222 1 -266 14 -285 l15 -23 22 21 c22 21 22 26 20 285 -2 145 -4
282 -6 304 -8 111 -6 207 5 218 15 15 14 23 -5 41 -19 20 -28 20 -44 1z m25
-813 c-3 -7 -10 -10 -15 -7 -9 6 -9 139 1 435 1 30 6 -51 10 -180 5 -129 7
-241 4 -248z"/>
<path d="M740 861 c0 -5 6 -11 14 -14 8 -3 30 -29 49 -57 l34 -51 -35 -55
c-20 -29 -42 -54 -49 -54 -7 0 -13 -4 -13 -10 0 -5 20 -10 45 -10 25 0 45 5
45 10 0 6 -9 10 -20 10 -18 0 -18 3 8 45 15 24 29 44 32 44 3 0 17 -20 32 -44
26 -42 26 -45 8 -45 -11 0 -20 -4 -20 -10 0 -5 25 -10 55 -10 30 0 55 5 55 10
0 6 -7 10 -15 10 -8 0 -32 26 -53 58 l-38 58 38 52 c21 29 43 52 48 52 6 0 10
5 10 10 0 6 -18 10 -40 10 -38 0 -56 -15 -26 -22 10 -2 6 -14 -14 -46 l-27
-44 -26 44 c-20 33 -22 44 -11 46 33 8 10 22 -36 22 -27 0 -50 -4 -50 -9z"/>
<path d="M993 859 c2 -8 10 -13 16 -11 8 1 11 -32 11 -108 0 -91 -3 -110 -15
-110 -8 0 -15 -4 -15 -10 0 -6 27 -10 60 -10 33 0 60 4 60 10 0 6 -11 10 -25
10 -22 0 -25 4 -25 40 0 39 1 40 36 40 69 0 118 83 80 136 -12 16 -29 20 -101
23 -70 2 -86 1 -82 -10z m138 -19 c24 -13 26 -66 2 -92 -9 -10 -29 -18 -45
-18 -28 0 -28 1 -28 60 0 58 1 60 26 60 14 0 34 -5 45 -10z"/>
<path d="M1220 860 c0 -6 7 -13 15 -16 12 -5 15 -27 15 -110 0 -97 -1 -104
-20 -104 -11 0 -20 -4 -20 -10 0 -5 25 -10 55 -10 30 0 55 5 55 10 0 6 -9 10
-20 10 -17 0 -20 7 -20 45 0 41 2 45 24 45 20 0 31 -11 53 -52 22 -42 34 -54
56 -56 15 -2 27 1 27 7 0 6 -4 11 -9 11 -4 0 -22 23 -39 50 -17 28 -27 50 -22
50 12 0 40 53 40 75 0 9 -11 27 -25 40 -21 22 -33 25 -95 25 -41 0 -70 -4 -70
-10z m134 -26 c36 -36 9 -94 -45 -94 -29 0 -29 1 -29 55 0 54 0 55 29 55 16 0
37 -7 45 -16z"/>
<path d="M1450 856 c0 -7 -3 -28 -6 -45 -5 -24 -3 -31 9 -31 10 0 17 11 19 33
3 28 7 32 36 35 l32 3 0 -110 0 -111 -25 0 c-14 0 -25 -4 -25 -10 0 -6 28 -10
65 -10 37 0 65 4 65 10 0 6 -11 10 -25 10 l-25 0 0 110 0 110 29 0 c29 0 41
-14 41 -51 0 -11 7 -19 16 -19 12 0 15 6 10 23 -3 12 -6 32 -6 45 0 21 -3 22
-105 22 -82 0 -105 -3 -105 -14z"/>
<path d="M1690 860 c0 -5 7 -10 15 -10 12 0 15 -19 15 -110 0 -91 -3 -110 -15
-110 -8 0 -15 -4 -15 -10 0 -6 38 -10 94 -10 l94 0 4 40 c4 48 -17 56 -27 10
-6 -28 -9 -30 -56 -30 l-49 0 0 110 c0 103 1 110 20 110 11 0 20 5 20 10 0 6
-22 10 -50 10 -27 0 -50 -4 -50 -10z"/>
<path d="M1910 861 c0 -5 7 -11 15 -15 12 -4 15 -26 15 -111 0 -87 -3 -105
-15 -105 -8 0 -15 -4 -15 -10 0 -5 20 -10 45 -10 25 0 45 5 45 10 0 6 -7 10
-15 10 -22 0 -19 57 4 86 l20 25 36 -66 c32 -57 40 -65 66 -65 16 0 29 5 29
10 0 6 -4 10 -9 10 -5 0 -30 30 -55 66 l-46 65 36 45 c20 24 43 44 50 44 8 0
14 5 14 10 0 6 -20 10 -45 10 -25 0 -45 -4 -45 -10 0 -5 7 -10 16 -10 17 0 5
-19 -55 -90 l-30 -35 -1 63 c0 49 3 62 15 62 8 0 15 5 15 10 0 6 -20 10 -45
10 -25 0 -45 -4 -45 -9z"/>
</g>
</svg>
